<svg id="SvgjsSvg1023" width="288" height="288" xmlns="http://www.w3.org/2000/svg" version="1.1" xmlns:xlink="http://www.w3.org/1999/xlink" xmlns:svgjs="http://svgjs.com/svgjs"><defs id="SvgjsDefs1024"></defs><g id="SvgjsG1025"><svg xmlns="http://www.w3.org/2000/svg" enable-background="new 0 0 128 128" viewBox="0 0 128 128" width="288" height="288"><path d="M64,13.3C36,13.3,13.3,36,13.3,64S36,114.7,64,114.7S114.7,92,114.7,64S92,13.3,64,13.3z M64,109.9
		c-25.3,0-45.9-20.6-45.9-45.9S38.7,18.1,64,18.1s45.9,20.6,45.9,45.9S89.3,109.9,64,109.9z" fill="#ffffff" class="color000 svgShape"></path><path d="M88.1,61.6H45.7l15.2-15.2c0.9-0.9,0.9-2.5,0-3.4c-0.9-0.9-2.5-0.9-3.4,0L38.1,62.3c-0.2,0.2-0.4,0.5-0.5,0.8
		c-0.2,0.6-0.2,1.3,0,1.8c0.1,0.3,0.3,0.6,0.5,0.8L57.5,85c0.5,0.5,1.1,0.7,1.7,0.7s1.2-0.2,1.7-0.7c0.9-0.9,0.9-2.5,0-3.4
		L45.7,66.4h42.5c1.3,0,2.4-1.1,2.4-2.4S89.5,61.6,88.1,61.6z" fill="#ffffff" class="color000 svgShape"></path></svg></g></svg>